<svg width="603" height="603" viewBox="0 0 603 603" fill="none" xmlns="http://www.w3.org/2000/svg">
<path d="M208.746 41.0208C255.512 60.4782 288.718 102.708 366.08 98.0993C422.293 94.7493 523.948 73.7276 573.919 131.675C621.977 187.405 591.767 207.071 635.848 249.424L585.22 565.32C440.446 634.549 354.687 598.801 344.328 535.2C331.598 457.047 275.697 440.127 223.173 456.932C148.929 480.686 0.276062 466.66 0.276062 140.847L104.511 90.9338L208.746 41.0208Z" fill="#BAF3FF"/>
<path d="M442.588 117.638C254.519 126.562 296.126 65.0311 159.625 21.4475C12.7471 -25.4525 -23.0236 72.2904 12.9836 246.866C45.9979 406.929 148.552 462.634 235.697 445.14C385.062 415.155 353.055 585.936 459.745 585.936C635.79 585.936 744.165 483.036 767.415 422.09C786.389 372.349 784.308 296.07 701.129 279.574C565.868 252.747 610.088 109.691 442.588 117.638Z" fill="#3165B1"/>
<mask id="mask0" mask-type="alpha" maskUnits="userSpaceOnUse" x="0" y="9" width="778" height="577">
<path d="M442.587 117.639C254.518 126.562 296.125 65.0315 159.624 21.448C12.7462 -25.452 -23.0245 72.2909 12.9826 246.866C45.9969 406.929 148.551 462.634 235.696 445.14C385.061 415.156 353.054 585.937 459.744 585.937C635.789 585.937 744.164 483.037 767.414 422.09C786.388 372.349 784.307 296.071 701.128 279.574C565.867 252.748 610.087 109.691 442.587 117.639Z" fill="#D7F4FF"/>
</mask>
<g mask="url(#mask0)">
<path d="M23.8643 291.867C52.7104 325.178 70.7589 289.057 119.842 339.069C140.254 359.867 182.755 342.486 156.717 265.559C141.483 220.546 185.125 173.155 238.294 212.163C265.053 231.794 292.756 209.504 283.234 177.697C275.153 150.704 214.774 86.8451 293.036 63.2202C373.998 38.7827 282.048 -67.4062 376.432 -70.5539L512.906 -169.375L821.742 268.743L23.8643 499.567V291.867Z" fill="#5FA0FF"/>
<path d="M635.855 193.933C570.558 153.063 508.918 175.173 494.178 230.783C479.438 286.393 433.878 285.723 395.688 273.663C357.498 261.603 342.011 289.826 338.738 311.183C334.048 341.78 305.685 347.81 274.195 333.74C242.705 319.67 191.966 321.68 196.698 406.323C198.086 431.156 171.918 430.041 156.721 406.546C144.192 387.174 128.006 387.174 115.628 391.583C100.362 397.021 76.0701 390.684 74.7576 367.463C72.4662 326.928 40.9609 337.413 23.8632 291.866V611.591H789.941V186.252L635.855 193.933Z" fill="#5A77F8"/>
<path d="M524.123 605.879C529.014 589.707 536.607 573.15 536.016 555.913C535.589 543.442 530.102 532.958 519.39 526.403C507.877 519.359 491.719 520.801 485.716 506.55C482.641 499.247 483.572 490.894 485.454 483.201C487.897 473.218 491.477 463.168 491.458 452.754C491.435 440.382 485.964 428.337 477.556 419.394C469.68 411.019 457.188 409.246 449.354 400.016C442.554 392.007 439.989 381.082 440.194 370.578C440.542 352.823 451.058 334.035 438.72 317.79C431.505 308.291 422.595 310.616 414.151 304.591C398.889 293.703 404.076 265.218 396.226 250.19C392.871 243.768 385.875 238.653 378.725 239.835C351.311 244.37 370.542 294.486 365.258 311.263C359.898 328.265 337.356 328.064 335.853 348.032C334.781 362.292 346.544 378.441 330.765 388.684C319.745 395.838 305.901 390.009 293.624 393.259C280.573 396.713 271.397 407.89 271.139 421.515C270.874 435.478 270.967 448.803 274.699 462.358C278.523 476.247 284.51 489.555 286.453 503.927C288.855 521.682 279.965 536.583 274.219 552.67C267.861 570.466 268.13 589.717 279.11 605.771" fill="#FBA23B"/>
<path d="M409.872 296.899C403.904 310.86 402.174 325.275 401.811 340.455C405.102 327.465 411.938 315.646 421.555 306.314" fill="#5A77F8"/>
<path d="M449.309 366.47C434.77 370.283 420.358 376.739 408.179 385.545C418.484 369.595 432.677 356.53 449.422 347.576" fill="#5A77F8"/>
<path d="M452.113 400.702C443.748 416.896 440.604 435.451 440.759 453.677C445.349 436.774 454.617 421.509 467.497 409.639" fill="#5A77F8"/>
<path d="M442.847 379.39C434.038 390.764 427.094 401.869 422.982 415.655C429.749 405.64 438.94 397.499 449.698 391.989" fill="#5A77F8"/>
<path d="M497.803 513.396C491.987 512.41 486.015 512.962 480.479 514.995C474.942 517.028 470.032 520.472 466.236 524.987C468.289 518.925 471.566 513.349 475.863 508.606C480.16 503.863 485.386 500.053 491.217 497.413" fill="#5A77F8"/>
<path d="M497.845 462.474C483.031 463.887 469.815 473.547 460.254 484.95C470.324 478.818 482.33 476.69 493.895 478.987" fill="#5A77F8"/>
<path d="M539.58 575.552C527.575 570.855 511.586 570.64 498.695 570.755C511.971 562.351 527.851 559.065 543.372 561.509" fill="#5A77F8"/>
<path d="M364.684 309.789C374.34 319.503 380.6 332.075 382.533 345.634C377.179 333.631 367.914 324.355 356.325 318.154" fill="#5A77F8"/>
<path d="M347 323.679C353.938 330.991 358.619 340.149 360.479 350.056C355.292 342.155 348.178 335.705 339.809 331.313" fill="#5A77F8"/>
<path d="M331.87 359.285C349.456 367.025 363.25 381.429 370.222 399.333C361.576 387.738 349.543 379.114 335.784 374.655" fill="#5A77F8"/>
<path d="M378.232 254.04C388.985 283.774 393.656 315.998 391.106 347.545C388.588 378.691 378.268 407.869 380.406 439.436C382.55 471.092 390.255 502.175 390.798 533.973C391.323 564.647 384.744 596.971 364.358 619.896" stroke="#E89528" stroke-width="2" stroke-linecap="round" stroke-linejoin="round"/>
<path d="M509.659 539.102C506.458 546.117 499.598 550.796 492.496 553.803C485.394 556.809 477.787 558.497 470.715 561.575C463.279 564.859 456.578 569.604 451.011 575.528C445.443 581.452 441.123 588.434 438.307 596.06" stroke="#E89528" stroke-width="2" stroke-linecap="round" stroke-linejoin="round"/>
<path d="M465.846 433.735C460.191 462.18 449.978 489.525 435.601 514.712C428.381 527.262 420.152 539.081 413.884 552.29C407.615 565.5 403.335 580.554 404.894 595.5" stroke="#E89528" stroke-width="2" stroke-linecap="round" stroke-linejoin="round"/>
<path d="M299.762 403.159C303.232 415.168 312.016 424.759 318.954 435.157C333.768 457.358 340.493 484.165 342.337 510.79C344.182 537.415 341.417 564.122 338.652 590.667" stroke="#E89528" stroke-width="2" stroke-linecap="round" stroke-linejoin="round"/>
<path opacity="0.1" d="M468.794 624.483C481.189 617.427 488.463 602.338 486.269 588.247C484.075 574.156 472.555 561.994 458.603 559.04C452.087 557.659 445.617 556.287 445.295 548.245C445.121 543.901 446.863 539.748 448.161 535.599C452.851 520.591 444.906 504.003 433.593 494.162C430.338 491.329 427.005 488.441 424.849 484.703C419.494 475.416 426.616 464.159 425.05 454.198C423.988 447.582 420.968 441.436 416.379 436.553C411.674 431.563 404.855 429.233 400.922 423.426C396.209 416.458 397.232 407.15 399.466 399.038C403.491 384.426 410.186 356.376 387.555 353.514C379.85 352.539 370.39 357.051 368.607 365.129C367.567 369.846 368.709 374.784 370.453 379.29C373.139 386.231 377.634 393.292 377.143 401.016C376.576 409.924 368.969 416.794 360.02 415.904C353.301 415.234 346.893 405.787 340.657 412.59C336.041 417.623 335.946 425.899 328.451 428.202C319.808 430.857 312.628 422.76 304.684 430.252C300.919 433.803 299.145 439.065 298.806 444.23C298.172 453.892 299.989 465.049 302.184 474.44C304.297 483.485 305.404 492.654 301.593 501.298C297.986 509.479 291.518 515.643 287.511 523.39C283.978 530.224 284.862 539.691 287.013 546.881C289.224 554.269 296.428 560.08 295.487 568.347C294.635 575.835 288.318 581.297 287.14 588.752C286.548 592.895 286.903 597.119 288.178 601.105C289.452 605.092 291.614 608.737 294.499 611.769" fill="#42210B"/>
<path d="M271.337 471.108C278.313 463.89 282.835 454.656 284.259 444.72C286.768 426.893 278.972 409.898 261.269 403.917C251.142 400.5 239.752 397.971 237.441 385.782C235.49 375.494 242.026 359.2 228.262 354.548C217.928 351.054 217.369 343.009 215.281 333.503C214.369 329.349 212.869 325.133 209.787 322.204C201.176 314.025 193.595 323.048 189.806 331.051C186.561 337.662 184.725 344.875 184.414 352.233C184.22 359.514 187.519 366.823 186.018 374.05C184.315 382.245 177.315 382.549 170.989 384.854C167.65 386.115 164.74 388.303 162.603 391.161C160.465 394.019 159.188 397.428 158.923 400.987C158.602 406.303 160.384 412.407 156.933 416.464C154.442 419.392 150.964 419.168 147.704 420.386C143.949 421.927 140.817 424.679 138.807 428.205C131.89 440.131 138.814 459.205 146.311 469.297" fill="#39AD4A"/>
<path d="M177.926 375.506C185.095 383.345 188.676 393.368 187.814 403.167C184.618 393.945 178.107 385.531 169.18 379.4" fill="#5FA0FF"/>
<path d="M156.449 410.321C163.84 416.089 169.31 423.962 172.137 432.9C165.889 425.059 157.452 419.252 147.896 416.217" fill="#5A77F8"/>
<path d="M243.53 389.593C236.102 399.587 233.157 412.904 233.91 425.332C236.552 414.445 242.146 404.497 250.078 396.584" fill="#5A77F8"/>
<path d="M239.177 371.577C231.68 377.477 226.567 384.374 226.246 393.909C229.308 387.786 234.596 383.065 241.026 380.714" fill="#5A77F8"/>
<path d="M218.486 334.858C215.203 339.731 212.255 347.207 211.48 353.032C214.044 348.42 217.453 344.331 221.53 340.98" fill="#5A77F8"/>
<path d="M201.22 331.064C195.626 352.255 201.705 374.591 207.971 395.593C214.237 416.596 220.782 438.68 216.078 460.086" stroke="#39934A" stroke-width="2" stroke-linecap="round" stroke-linejoin="round"/>
<path d="M172.253 400.808C185.582 422.296 191.699 447.48 189.713 472.687" stroke="#39934A" stroke-width="2" stroke-linecap="round" stroke-linejoin="round"/>
<path d="M253.149 412.5C241.645 428.008 235.218 446.694 234.747 465.998" stroke="#39934A" stroke-width="2" stroke-linecap="round" stroke-linejoin="round"/>
<path opacity="0.1" d="M168.35 488.041C165.755 481.207 163.941 473.971 164.135 466.659C164.45 454.791 170.806 449.68 177.009 440.658C180.998 434.857 179.527 427.459 176.989 421.394C175.393 417.583 175.155 412.633 179.631 410.816C184.857 408.696 190.6 413.697 195.329 409.614C197.75 407.521 198.917 404.265 199.138 401.072C199.751 392.279 197.781 381.092 194.087 373.102C190.814 366.021 189.38 348.634 202.185 351.099C212.113 353.011 211.551 368.318 210.321 375.75C209.234 382.319 208.675 389.522 212.085 395.545C213.76 398.506 216.278 400.921 217.987 403.864C221.859 410.535 219.805 415.95 221.266 422.964C222.237 427.631 226.429 432.073 231.566 432.068C237.986 432.063 243.097 426.239 249.713 426.55C266.364 427.332 268.054 454.261 266.775 466.045C265.926 473.869 262.822 481.608 257.211 487.129" fill="#42210B"/>
</g>
<path d="M200.156 172.157H146.556C142.856 172.157 139.856 169.158 139.856 165.457V142.677C139.856 138.977 142.856 135.977 146.556 135.977H200.156C203.857 135.977 206.856 138.977 206.856 142.677V165.457C206.856 169.158 203.857 172.157 200.156 172.157Z" fill="#8CC63F"/>
<path d="M185.878 157.865C183.781 157.865 182.081 156.165 182.081 154.068C182.081 151.971 183.781 150.271 185.878 150.271C187.975 150.271 189.675 151.971 189.675 154.068C189.675 156.165 187.975 157.865 185.878 157.865Z" fill="white"/>
<path d="M173.355 157.865C171.258 157.865 169.559 156.165 169.559 154.068C169.559 151.971 171.258 150.271 173.355 150.271C175.452 150.271 177.152 151.971 177.152 154.068C177.152 156.165 175.452 157.865 173.355 157.865Z" fill="white"/>
<path d="M160.836 157.865C158.739 157.865 157.039 156.165 157.039 154.068C157.039 151.971 158.739 150.271 160.836 150.271C162.933 150.271 164.633 151.971 164.633 154.068C164.633 156.165 162.933 157.865 160.836 157.865Z" fill="white"/>
<path d="M202.836 142.678C202.836 141.967 202.554 141.285 202.051 140.783C201.548 140.28 200.867 139.998 200.156 139.998" stroke="white" stroke-width="2" stroke-linecap="round" stroke-linejoin="round"/>
<path d="M202.836 158.757V142.677" stroke="white" stroke-width="2" stroke-linecap="round" stroke-linejoin="round"/>
<path d="M158.061 139.998H153.256" stroke="white" stroke-width="2" stroke-linecap="round" stroke-linejoin="round"/>
<path d="M171.684 139.998H160.834" stroke="white" stroke-width="2" stroke-linecap="round" stroke-linejoin="round"/>
<path d="M200.156 139.998H175.37" stroke="white" stroke-width="2" stroke-linecap="round" stroke-linejoin="round"/>
<path d="M314.02 36.1799L260.42 36.1799C256.719 36.1799 253.72 33.1802 253.72 29.4799V6.69992C253.72 2.99961 256.719 -8.39233e-05 260.42 -8.39233e-05L314.02 -8.39233e-05C317.72 -8.39233e-05 320.72 2.99961 320.72 6.69992V29.4799C320.72 33.1802 317.72 36.1799 314.02 36.1799Z" fill="#8CC63F"/>
<path d="M299.741 21.888C297.644 21.888 295.944 20.188 295.944 18.0911C295.944 15.9941 297.644 14.2942 299.741 14.2942C301.838 14.2942 303.538 15.9941 303.538 18.0911C303.538 20.188 301.838 21.888 299.741 21.888Z" fill="white"/>
<path d="M287.22 21.887C285.123 21.887 283.423 20.1871 283.423 18.0901C283.423 15.9931 285.123 14.2932 287.22 14.2932C289.317 14.2932 291.017 15.9931 291.017 18.0901C291.017 20.1871 289.317 21.887 287.22 21.887Z" fill="white"/>
<path d="M274.698 21.887C272.601 21.887 270.901 20.1871 270.901 18.0901C270.901 15.9931 272.601 14.2932 274.698 14.2932C276.795 14.2932 278.495 15.9931 278.495 18.0901C278.495 20.1871 276.795 21.887 274.698 21.887Z" fill="white"/>
<path d="M316.699 6.70075C316.699 5.98997 316.417 5.30851 315.914 4.80591C315.412 4.30331 314.73 4.02075 314.019 4.02075" stroke="white" stroke-width="2" stroke-linecap="round" stroke-linejoin="round"/>
<path d="M316.699 22.7797V6.69971" stroke="white" stroke-width="2" stroke-linecap="round" stroke-linejoin="round"/>
<path d="M269.507 4.02002H267.118" stroke="white" stroke-width="2" stroke-linecap="round" stroke-linejoin="round"/>
<path d="M287.906 4.22972C283.022 4.20024 278.139 4.13035 273.256 4.02002" stroke="white" stroke-width="2" stroke-linecap="round" stroke-linejoin="round"/>
<path d="M314.02 4.02002C306.519 4.18797 299.016 4.26296 291.512 4.2451" stroke="white" stroke-width="2" stroke-linecap="round" stroke-linejoin="round"/>
<path d="M36.407 341.686H90.007C93.7073 341.686 96.707 344.685 96.707 348.386V371.166C96.707 374.866 93.7073 377.866 90.007 377.866H36.407C32.7067 377.866 29.707 374.866 29.707 371.166V348.386C29.707 344.685 32.7067 341.686 36.407 341.686Z" fill="#8CC63F"/>
<path d="M75.7285 363.572C73.6315 363.572 71.9316 361.872 71.9316 359.775C71.9316 357.678 73.6315 355.979 75.7285 355.979C77.8255 355.979 79.5254 357.678 79.5254 359.775C79.5254 361.872 77.8255 363.572 75.7285 363.572Z" fill="white"/>
<path d="M63.207 363.573C61.11 363.573 59.4101 361.873 59.4101 359.776C59.4101 357.679 61.11 355.979 63.207 355.979C65.304 355.979 67.0039 357.679 67.0039 359.776C67.0039 361.873 65.304 363.573 63.207 363.573Z" fill="white"/>
<path d="M50.6855 363.573C48.5886 363.573 46.8886 361.873 46.8886 359.776C46.8886 357.679 48.5886 355.979 50.6855 355.979C52.7825 355.979 54.4824 357.679 54.4824 359.776C54.4824 361.873 52.7825 363.573 50.6855 363.573Z" fill="white"/>
<path d="M92.6875 348.385C92.6875 347.674 92.4051 346.993 91.9025 346.49C91.4 345.988 90.7183 345.705 90.0075 345.705" stroke="white" stroke-width="2" stroke-linecap="round" stroke-linejoin="round"/>
<path d="M92.6875 364.465V348.385" stroke="white" stroke-width="2" stroke-linecap="round" stroke-linejoin="round"/>
<path d="M47.2314 345.705H43.1069" stroke="white" stroke-width="2" stroke-linecap="round" stroke-linejoin="round"/>
<path d="M60.5205 345.705H51.3549" stroke="white" stroke-width="2" stroke-linecap="round" stroke-linejoin="round"/>
<path d="M90.0068 345.705C81.4583 346.023 72.7483 346.023 63.982 345.705" stroke="white" stroke-width="2" stroke-linecap="round" stroke-linejoin="round"/>
<path d="M182.626 480.066H236.226C239.926 480.066 242.926 483.066 242.926 486.766V509.546C242.926 513.247 239.926 516.246 236.226 516.246H182.626C178.925 516.246 175.926 513.247 175.926 509.546V486.766C175.926 483.066 178.925 480.066 182.626 480.066Z" fill="#8CC63F"/>
<path d="M221.948 501.954C219.851 501.954 218.151 500.254 218.151 498.157C218.151 496.061 219.851 494.361 221.948 494.361C224.045 494.361 225.745 496.061 225.745 498.157C225.745 500.254 224.045 501.954 221.948 501.954Z" fill="white"/>
<path d="M209.426 501.954C207.329 501.954 205.629 500.254 205.629 498.157C205.629 496.06 207.329 494.36 209.426 494.36C211.523 494.36 213.223 496.06 213.223 498.157C213.223 500.254 211.523 501.954 209.426 501.954Z" fill="white"/>
<path d="M196.904 501.954C194.807 501.954 193.107 500.254 193.107 498.157C193.107 496.06 194.807 494.36 196.904 494.36C199.001 494.36 200.701 496.06 200.701 498.157C200.701 500.254 199.001 501.954 196.904 501.954Z" fill="white"/>
<path d="M238.909 486.766C238.909 486.056 238.627 485.374 238.124 484.872C237.622 484.369 236.94 484.086 236.229 484.086" stroke="white" stroke-width="2" stroke-linecap="round" stroke-linejoin="round"/>
<path d="M238.907 502.846V486.766" stroke="white" stroke-width="2" stroke-linecap="round" stroke-linejoin="round"/>
<path d="M194.508 484.086H189.329" stroke="white" stroke-width="2" stroke-linecap="round" stroke-linejoin="round"/>
<path d="M211.615 484.057C207.176 484.061 202.737 484.071 198.298 484.087" stroke="white" stroke-width="2" stroke-linecap="round" stroke-linejoin="round"/>
<path d="M236.229 484.087C229.412 484.063 222.595 484.052 215.779 484.054" stroke="white" stroke-width="2" stroke-linecap="round" stroke-linejoin="round"/>
<path d="M277.378 493.432C311.28 477.401 330.237 429.916 325.192 388.729C319.001 338.187 287.082 303.911 242.929 281.703C205.632 262.943 109.829 252.713 107.54 324.736C106.626 353.535 130.499 373.492 153.156 378.109C177.167 383 202.997 374.38 220.941 355.487C240.84 334.533 250.634 301.897 244.3 271.788C235.012 227.635 198.46 212.765 165.817 197.848C128.653 180.867 91.5327 138.94 105.607 88.9584C119.249 40.5174 176.711 18.0898 218.212 18.0898" stroke="#1D3962" stroke-width="4" stroke-miterlimit="10" stroke-linecap="round" stroke-dasharray="4 8"/>
<path d="M145.874 477.762C125.679 478.46 113.747 475.336 93.828 467.383C75.1933 459.946 76.6921 498.076 100.091 505.024C123.445 511.96 144.637 498.138 148.235 494.763C155.64 487.818 154.612 477.46 145.874 477.762Z" fill="#D7F4FF"/>
<path d="M288.346 64.2525C305.537 82.4148 330.605 92.5455 350.74 86.1992C371.659 79.6051 378.906 56.1638 375.586 44.3772L288.346 64.2525Z" fill="#BAF3FF"/>
<path d="M295.133 49.9578C315.151 47.7106 332.576 41.4354 349.91 30.0266C366.789 18.918 387.738 44.5699 367.415 67.0068C347.957 88.4877 313.097 79.3568 301.564 73.767C281.025 63.8108 281.638 51.4727 295.133 49.9578Z" fill="#D7F4FF"/>
<path d="M558.462 333.127H585.649C591.57 333.127 596.369 337.927 596.369 343.847C596.369 349.768 591.57 354.567 585.649 354.567H558.462C552.541 354.567 547.742 349.768 547.742 343.847C547.742 337.927 552.541 333.127 558.462 333.127Z" fill="#F7931E"/>
<path d="M468.816 232.402H496.004C501.924 232.402 506.724 237.202 506.724 243.122C506.724 249.043 501.924 253.842 496.004 253.842H468.816C462.896 253.842 458.096 249.043 458.096 243.122C458.096 237.202 462.896 232.402 468.816 232.402Z" fill="#9EFBFF"/>
<path d="M104.84 392.482H125.963C133.659 392.482 139.898 398.721 139.898 406.417C139.898 414.114 133.659 420.353 125.963 420.353H104.84C97.1437 420.353 90.9047 414.114 90.9047 406.417C90.9047 398.721 97.1437 392.482 104.84 392.482Z" fill="#F754A2"/>
<path d="M66.4338 192.705H87.5569C95.2531 192.705 101.492 198.944 101.492 206.64C101.492 214.336 95.2531 220.575 87.5569 220.575H66.4338C58.7375 220.575 52.4984 214.336 52.4984 206.64C52.4984 198.944 58.7375 192.705 66.4338 192.705Z" fill="#C536C8"/>
<path d="M384.774 546.553H405.897C413.593 546.553 419.832 552.792 419.832 560.488C419.832 568.185 413.593 574.424 405.897 574.424H384.774C377.077 574.424 370.838 568.185 370.838 560.488C370.838 552.792 377.077 546.553 384.774 546.553Z" fill="#39B54A"/>
<path d="M13.9367 52.3013H35.0598C42.7561 52.3013 48.9951 58.5403 48.9951 66.2366C48.9951 73.9329 42.7561 80.1719 35.0598 80.1719H13.9367C6.24041 80.1719 0.0013504 73.9329 0.0013504 66.2366C0.0013504 58.5403 6.24041 52.3013 13.9367 52.3013Z" fill="#39B54A"/>
<path d="M582.818 139.105H596.411C599.372 139.105 601.771 141.505 601.771 144.465C601.771 147.425 599.372 149.825 596.411 149.825H582.818C579.858 149.825 577.458 147.425 577.458 144.465C577.458 141.505 579.858 139.105 582.818 139.105Z" fill="#39B54A"/>
<path d="M537.723 481.739H551.317C554.277 481.739 556.677 484.139 556.677 487.099C556.677 490.06 554.277 492.459 551.317 492.459H537.723C534.763 492.459 532.363 490.06 532.363 487.099C532.363 484.139 534.763 481.739 537.723 481.739Z" fill="#F754A2"/>
<path d="M179.503 68.377H193.097C196.057 68.377 198.457 70.7767 198.457 73.737C198.457 76.6972 196.057 79.097 193.097 79.097H179.503C176.543 79.097 174.143 76.6972 174.143 73.737C174.143 70.7767 176.543 68.377 179.503 68.377Z" fill="#29ABE2"/>
<path d="M468.594 149.488H482.188C485.148 149.488 487.548 151.888 487.548 154.848C487.548 157.808 485.148 160.208 482.188 160.208H468.594C465.634 160.208 463.234 157.808 463.234 154.848C463.234 151.888 465.634 149.488 468.594 149.488Z" fill="#F7931E"/>
<path d="M329.748 299.679H343.341C346.301 299.679 348.701 302.079 348.701 305.039C348.701 307.999 346.301 310.399 343.341 310.399H329.748C326.787 310.399 324.388 307.999 324.388 305.039C324.388 302.079 326.787 299.679 329.748 299.679Z" fill="#9EFBFF"/>
<path d="M269.801 206.64H283.395C286.355 206.64 288.755 209.039 288.755 212C288.755 214.96 286.355 217.36 283.395 217.36H269.801C266.841 217.36 264.441 214.96 264.441 212C264.441 209.039 266.841 206.64 269.801 206.64Z" fill="#C536C8"/>
<path d="M513.757 379.032H540.249C544.387 379.032 547.741 382.387 547.741 386.524C547.741 390.662 544.387 394.016 540.249 394.016H513.757C509.619 394.016 506.265 390.662 506.265 386.524C506.265 382.387 509.619 379.032 513.757 379.032Z" fill="#F754A2"/>
<path d="M33.6445 241.049H60.137C64.2746 241.049 67.6289 244.403 67.6289 248.541C67.6289 252.679 64.2746 256.033 60.137 256.033H33.6445C29.5068 256.033 26.1525 252.679 26.1525 248.541C26.1525 244.403 29.5068 241.049 33.6445 241.049Z" fill="#29ABE2"/>
<path d="M393.478 64.9048H419.971C424.109 64.9048 427.463 68.259 427.463 72.3967C427.463 76.5344 424.109 79.8887 419.971 79.8887H393.478C389.341 79.8887 385.987 76.5344 385.987 72.3967C385.987 68.259 389.341 64.9048 393.478 64.9048Z" fill="#39B54A"/>
<path d="M310.26 147.356H336.752C340.89 147.356 344.244 150.71 344.244 154.848C344.244 158.985 340.89 162.34 336.752 162.34H310.26C306.122 162.34 302.768 158.985 302.768 154.848C302.768 150.71 306.122 147.356 310.26 147.356Z" fill="#9EFBFF"/>
<path d="M585.649 337.147H558.462" stroke="white" stroke-width="2" stroke-linecap="round" stroke-linejoin="round"/>
<path d="M496.004 236.422H468.817" stroke="white" stroke-width="2" stroke-linecap="round" stroke-linejoin="round"/>
<path d="M125.963 396.501H104.84" stroke="white" stroke-width="2" stroke-linecap="round" stroke-linejoin="round"/>
<path d="M87.5557 196.724H66.4326" stroke="white" stroke-width="2" stroke-linecap="round" stroke-linejoin="round"/>
<path d="M405.896 550.573H384.773" stroke="white" stroke-width="2" stroke-linecap="round" stroke-linejoin="round"/>
<path d="M35.0596 56.3208H13.9365" stroke="white" stroke-width="2" stroke-linecap="round" stroke-linejoin="round"/>
<path d="M596.411 143.125H582.817" stroke="white" stroke-width="2" stroke-linecap="round" stroke-linejoin="round"/>
<path d="M551.317 485.759H537.724" stroke="white" stroke-width="2" stroke-linecap="round" stroke-linejoin="round"/>
<path d="M193.097 72.3967H179.503" stroke="white" stroke-width="2" stroke-linecap="round" stroke-linejoin="round"/>
<path d="M482.188 153.508H468.594" stroke="white" stroke-width="2" stroke-linecap="round" stroke-linejoin="round"/>
<path d="M343.341 303.699H329.747" stroke="white" stroke-width="2" stroke-linecap="round" stroke-linejoin="round"/>
<path d="M283.396 210.659H269.802" stroke="white" stroke-width="2" stroke-linecap="round" stroke-linejoin="round"/>
<path d="M540.25 383.052H513.758" stroke="white" stroke-width="2" stroke-linecap="round" stroke-linejoin="round"/>
<path d="M60.1367 245.069H33.6442" stroke="white" stroke-width="2" stroke-linecap="round" stroke-linejoin="round"/>
<path d="M419.971 68.9243H393.478" stroke="white" stroke-width="2" stroke-linecap="round" stroke-linejoin="round"/>
<path d="M336.75 151.375H310.258" stroke="white" stroke-width="2" stroke-linecap="round" stroke-linejoin="round"/>
<path d="M115.401 165.123C109.296 165.123 104.346 160.173 104.346 154.068C104.346 147.962 109.296 143.013 115.401 143.013C121.507 143.013 126.456 147.962 126.456 154.068C126.456 160.173 121.507 165.123 115.401 165.123Z" fill="#FF7600"/>
<path d="M121.162 371.165C115.056 371.165 110.107 366.216 110.107 360.11C110.107 354.005 115.056 349.055 121.162 349.055C127.267 349.055 132.217 354.005 132.217 360.11C132.217 366.216 127.267 371.165 121.162 371.165Z" fill="#FF7600"/>
<path d="M267.382 509.212C261.277 509.212 256.327 504.262 256.327 498.157C256.327 492.051 261.277 487.102 267.382 487.102C273.488 487.102 278.438 492.051 278.438 498.157C278.438 504.262 273.488 509.212 267.382 509.212Z" fill="#FF7600"/>
<path d="M229.263 29.1449C223.158 29.1449 218.208 24.1954 218.208 18.0899C218.208 11.9844 223.158 7.03491 229.263 7.03491C235.369 7.03491 240.318 11.9844 240.318 18.0899C240.318 24.1954 235.369 29.1449 229.263 29.1449Z" fill="#FF7600"/>
<path d="M122.436 154.068C122.433 152.203 121.692 150.415 120.373 149.096C119.054 147.777 117.266 147.035 115.401 147.033" stroke="white" stroke-width="2" stroke-linecap="round" stroke-linejoin="round"/>
<path d="M236.299 18.0899C236.297 16.2248 235.555 14.4368 234.236 13.1179C232.917 11.7991 231.129 11.0571 229.264 11.0549" stroke="white" stroke-width="2" stroke-linecap="round" stroke-linejoin="round"/>
<path d="M274.007 500.525C274.32 499.656 274.459 498.733 274.414 497.81C274.368 496.887 274.141 495.982 273.743 495.147C273.17 493.944 272.268 492.927 271.142 492.214C270.016 491.501 268.711 491.121 267.378 491.117" stroke="white" stroke-width="2" stroke-linecap="round" stroke-linejoin="round"/>
<path d="M128.195 360.11C128.193 358.245 127.451 356.457 126.132 355.138C124.814 353.819 123.025 353.077 121.16 353.075" stroke="white" stroke-width="2" stroke-linecap="round" stroke-linejoin="round"/>
</svg>
